<?xml version="1.0" encoding="UTF-8"?>
<!DOCTYPE svg PUBLIC "-//W3C//DTD SVG 1.1//EN" "http://www.w3.org/Graphics/SVG/1.1/DTD/svg11.dtd">
<svg version="1.1" xmlns="http://www.w3.org/2000/svg" xmlns:xlink="http://www.w3.org/1999/xlink" x="0" y="0" width="32" height="32" viewBox="0, 0, 32, 32">
  <g id="Layer_1">
    <g>
      <g>
        <path d="M10.327,18.028 Q10.327,18.859 10.139,19.769 Q9.951,20.679 9.447,21.441 Q8.942,22.203 8.042,22.697 Q7.142,23.192 5.718,23.192 Q3.937,23.192 2.75,22.272 Q1.563,21.352 1.167,19.908 L4.154,18.899 Q4.293,19.452 4.659,19.789 Q5.025,20.125 5.559,20.125 Q6.39,20.125 6.657,19.551 Q6.924,18.978 6.924,18.048 L6.924,8.808 L10.327,8.808 z" fill="#444444"/>
        <path d="M25.839,22.816 L25.918,12.904 L25.859,12.904 L22.218,22.816 L19.844,22.816 L16.302,12.904 L16.243,12.904 L16.322,22.816 L13.137,22.816 L13.137,8.808 L17.945,8.808 L21.13,17.791 L21.209,17.791 L24.256,8.808 L29.143,8.808 L29.143,22.816 z" fill="#458EE5"/>
      </g>
      <path d="M16,28.889 C7.151,28.889 -0.022,23.119 -0.022,16 C-0.022,8.881 7.151,3.111 16,3.111 C24.849,3.111 32.022,8.881 32.022,16 C32.022,23.119 24.849,28.889 16,28.889 z" fill="#444444" opacity="0"/>
    </g>
  </g>
</svg>
